<svg width="20" height="20" viewBox="0 0 20 20" fill="none" xmlns="http://www.w3.org/2000/svg">
<path d="M19.1033 5.58443C18.9931 5.18327 18.7831 4.81778 18.4934 4.52328C18.2037 4.22878 17.8442 4.01523 17.4497 3.90327C15.9687 3.49989 10.0084 3.49989 10.0084 3.49989C10.0084 3.49989 4.06314 3.49184 2.56713 3.90327C2.17254 4.01523 1.81304 4.22878 1.52336 4.52328C1.23369 4.81778 1.02364 5.18327 0.913514 5.58443C0.63278 7.1259 0.494377 8.69068 0.50011 10.2583C0.495461 11.8201 0.633859 13.3789 0.913514 14.9145C1.02364 15.3157 1.23369 15.6812 1.52336 15.9757C1.81304 16.2702 2.17254 16.4837 2.56713 16.5957C4.04651 16.9999 10.0084 16.9999 10.0084 16.9999C10.0084 16.9999 15.9528 16.9999 17.4497 16.5957C17.8442 16.4837 18.2037 16.2702 18.4934 15.9757C18.7831 15.6812 18.9931 15.3157 19.1033 14.9145C19.3771 13.3783 19.5096 11.8195 19.4993 10.2583C19.5107 8.69123 19.3782 7.12646 19.1033 5.58443ZM8.1061 13.1496V7.35818L13.0669 10.2583L8.1061 13.1496Z" fill="#D6D6D6"/>
</svg>
