<svg width="20" height="20" viewBox="0 0 20 20" fill="none" xmlns="http://www.w3.org/2000/svg">
<path fill-rule="evenodd" clip-rule="evenodd" d="M3.84614 4.61537C3.42483 4.61537 3.07691 4.96328 3.07691 5.3846V14.6154C3.07691 15.0367 3.42483 15.3846 3.84614 15.3846H16.1538C16.5752 15.3846 16.9231 15.0367 16.9231 14.6154V5.3846C16.9231 4.96328 16.5752 4.61537 16.1538 4.61537H3.84614ZM1.53845 5.3846C1.53845 4.11361 2.57516 3.0769 3.84614 3.0769H16.1538C17.4248 3.0769 18.4615 4.11361 18.4615 5.3846V14.6154C18.4615 15.8864 17.4248 16.9231 16.1538 16.9231H3.84614C2.57516 16.9231 1.53845 15.8864 1.53845 14.6154V5.3846Z" fill="#D6D6D6"/>
<path fill-rule="evenodd" clip-rule="evenodd" d="M1.67757 4.94341C1.9212 4.59537 2.40084 4.51073 2.74887 4.75435L10.0001 9.83018L17.2512 4.75435C17.5993 4.51073 18.0789 4.59537 18.3225 4.94341C18.5662 5.29144 18.4815 5.77108 18.1335 6.01471L10.4412 11.3993C10.1763 11.5847 9.82379 11.5847 9.55893 11.3993L1.86662 6.01471C1.51859 5.77108 1.43394 5.29144 1.67757 4.94341Z" fill="#D6D6D6"/>
</svg>
