<svg width="20" height="20" viewBox="0 0 20 20" fill="none" xmlns="http://www.w3.org/2000/svg">
<path d="M9.13934 2.03963C5.71765 2.5064 3.05481 4.99691 2.40387 8.33731C2.08012 10.0127 2.32028 11.7195 3.10346 13.2974L3.38542 13.8581L2.68583 15.9239C2.29938 17.0559 1.9931 17.9929 2.00012 17.9999C2.00714 18.0069 2.98166 17.7073 4.16174 17.331L6.31291 16.6448L6.72368 16.8399C8.40498 17.6271 10.2708 17.8187 12.0459 17.3799C14.7715 16.7041 16.9644 14.5863 17.7199 11.8973C18.0366 10.7618 18.0888 9.4102 17.8557 8.25725C17.3197 5.61349 15.433 3.41543 12.8781 2.46458C12.4916 2.31819 11.8616 2.15449 11.3847 2.071C10.9286 1.99438 9.60922 1.97347 9.13934 2.03963ZM11.0887 3.29698C13.6541 3.6453 15.8332 5.55762 16.5189 8.06561C16.8113 9.13507 16.8252 10.3297 16.5571 11.3887C16.0071 13.5552 14.3677 15.3143 12.2373 16.0214C10.4167 16.6275 8.39779 16.4184 6.77919 15.4537C6.62948 15.3666 6.49381 15.2934 6.47976 15.2934C6.46932 15.2934 5.89838 15.4711 5.21267 15.6906C4.53039 15.9065 3.97007 16.0737 3.97007 16.0564C3.97007 16.0425 4.15113 15.4955 4.37382 14.8441L4.77757 13.6598L4.59651 13.3881C4.37023 13.0468 4.00468 12.3047 3.86901 11.9112C2.80762 8.83201 4.21039 5.42528 7.15519 3.93447C8.37004 3.32148 9.68938 3.10893 11.0887 3.29698Z" fill="#D6D6D6"/>
<path d="M6.89044 6.08104C6.60927 6.23104 6.22124 6.81603 6.07882 7.30482C6.05027 7.40102 6.01471 7.65498 6.00402 7.86671C5.97914 8.35928 6.06814 8.78652 6.31374 9.34065C6.49524 9.74857 6.91532 10.4336 7.3319 10.9955C8.06171 11.9844 8.96232 12.7927 9.81668 13.2352C10.4824 13.5778 11.5075 13.9433 11.9418 13.9933C12.5364 14.0589 13.4405 13.6316 13.7574 13.1313C13.9639 12.808 14.0778 12.0153 13.9389 11.8768C13.8678 11.8075 12.5185 11.0956 12.2515 10.9841C12.159 10.9456 12.045 10.9263 11.9988 10.9418C11.9453 10.9534 11.8066 11.1074 11.6498 11.3189C11.2654 11.8418 11.0768 12.042 10.9734 12.042C10.8347 12.042 10.1439 11.6803 9.75607 11.4032C9.26119 11.0491 8.62405 10.3565 8.27876 9.79839C8.13634 9.57133 8.02247 9.34047 8.02247 9.29047C8.02247 9.2365 8.11497 9.08651 8.27158 8.89031C8.49932 8.60169 8.69868 8.25929 8.69868 8.15135C8.69868 8.12825 8.53489 7.68188 8.33553 7.15843C8.10061 6.55034 7.93682 6.17328 7.87637 6.10397C7.78388 6.00397 7.76601 6 7.41004 6C7.1075 6.00018 7.015 6.01552 6.89044 6.08104Z" fill="#D6D6D6"/>
</svg>
