<svg width="20" height="20" viewBox="0 0 20 20" fill="none" xmlns="http://www.w3.org/2000/svg">
<path fill-rule="evenodd" clip-rule="evenodd" d="M9.66672 3.33334C8.25222 3.33334 6.89565 3.89525 5.89545 4.89545C4.89525 5.89565 4.33334 7.25222 4.33334 8.66672C4.33334 10.7321 5.67718 12.7362 7.15067 14.2916C7.87378 15.0549 8.59915 15.6797 9.1445 16.114C9.34746 16.2756 9.52473 16.4102 9.66672 16.5152C9.8087 16.4102 9.98598 16.2756 10.1889 16.114C10.7343 15.6797 11.4597 15.0549 12.1828 14.2916C13.6563 12.7362 15.0001 10.7321 15.0001 8.66672C15.0001 7.25222 14.4382 5.89565 13.438 4.89545C12.4378 3.89525 11.0812 3.33334 9.66672 3.33334ZM9.66672 17.3334C9.29691 17.8882 9.29675 17.888 9.29655 17.8879L9.29465 17.8866L9.2902 17.8837L9.27493 17.8733C9.26195 17.8645 9.24343 17.8518 9.21975 17.8354C9.1724 17.8027 9.10436 17.7549 9.01857 17.6929C8.84707 17.5691 8.60428 17.3883 8.31392 17.1571C7.73426 16.6955 6.95962 16.0287 6.18272 15.2086C4.65619 13.5973 3 11.268 3 8.66672C3 6.89859 3.70238 5.20289 4.95264 3.95264C6.20289 2.70238 7.89859 2 9.66672 2C11.4348 2 13.1305 2.70238 14.3808 3.95264C15.631 5.20289 16.3334 6.89859 16.3334 8.66672C16.3334 11.268 14.6772 13.5973 13.1507 15.2086C12.3738 16.0287 11.5992 16.6955 11.0195 17.1571C10.7292 17.3883 10.4864 17.5691 10.3149 17.6929C10.2291 17.7549 10.161 17.8027 10.1137 17.8354C10.09 17.8518 10.0715 17.8645 10.0585 17.8733L10.0432 17.8837L10.0388 17.8866L10.0374 17.8876C10.0372 17.8877 10.0365 17.8882 9.66672 17.3334ZM9.66672 17.3334L10.0365 17.8882C9.81259 18.0374 9.52049 18.0372 9.29655 17.8879L9.66672 17.3334Z" fill="#D6D6D6"/>
<path fill-rule="evenodd" clip-rule="evenodd" d="M9.66669 7.33334C8.9303 7.33334 8.33334 7.9303 8.33334 8.66669C8.33334 9.40307 8.9303 10 9.66669 10C10.4031 10 11 9.40307 11 8.66669C11 7.9303 10.4031 7.33334 9.66669 7.33334ZM7 8.66669C7 7.19392 8.19392 6 9.66669 6C11.1395 6 12.3334 7.19392 12.3334 8.66669C12.3334 10.1395 11.1395 11.3334 9.66669 11.3334C8.19392 11.3334 7 10.1395 7 8.66669Z" fill="#D6D6D6"/>
</svg>
