<svg width="20" height="20" viewBox="0 0 20 20" fill="none" xmlns="http://www.w3.org/2000/svg">
<path d="M5.80451 3.46708C4.57391 3.9913 3.66765 4.7412 3.40058 5.44663C3.34017 5.60556 3.33065 5.69447 3.33378 6.07581C3.3369 6.90197 3.53731 7.81704 3.94112 8.84019C4.49119 10.2318 5.30207 11.4868 6.47553 12.7642C8.56791 15.0392 11.3789 16.539 13.7924 16.6597C14.2439 16.6851 14.4537 16.6438 14.8068 16.4596C15.3951 16.1545 16.1201 15.1855 16.5558 14.1241C16.683 13.819 16.6925 13.7556 16.6257 13.6284C16.5716 13.5235 13.6366 11.4391 13.4554 11.3756C13.325 11.3343 13.1788 11.3471 13.0388 11.417C12.991 11.4424 12.7303 11.7347 12.4569 12.0652C11.9004 12.7419 11.8241 12.8023 11.5157 12.8055C11.3471 12.8055 11.2995 12.7896 10.9083 12.5736C9.14654 11.6108 8.38029 10.845 7.41675 9.08476C7.20056 8.69078 7.18465 8.64619 7.18465 8.47462C7.18778 8.16955 7.25784 8.08064 7.9256 7.53413C8.24995 7.27039 8.53933 7.00665 8.5743 6.95268C8.6411 6.83508 8.65063 6.58412 8.59335 6.46965C8.57104 6.42832 8.07825 5.72302 7.49947 4.90637C6.8222 3.94358 6.41825 3.40033 6.36111 3.37165C6.23064 3.30503 6.15744 3.31768 5.80451 3.46708Z" fill="#D6D6D6"/>
</svg>
