<svg width="20" height="20" viewBox="0 0 20 20" fill="none" xmlns="http://www.w3.org/2000/svg">
<path d="M10 2.5C7.9625 2.5 7.70813 2.50937 6.90812 2.545C6.10938 2.5825 5.56562 2.70812 5.0875 2.89375C4.59437 3.085 4.17562 3.34187 3.75875 3.75875C3.34187 4.17562 3.08438 4.59375 2.89375 5.0875C2.70812 5.56562 2.58187 6.10938 2.545 6.90812C2.5075 7.70813 2.5 7.9625 2.5 10C2.5 12.0375 2.50937 12.2919 2.545 13.0919C2.5825 13.89 2.70812 14.4344 2.89375 14.9125C3.085 15.405 3.34187 15.8244 3.75875 16.2413C4.17562 16.6575 4.59375 16.9156 5.0875 17.1063C5.56625 17.2913 6.11 17.4181 6.90812 17.455C7.70813 17.4925 7.9625 17.5 10 17.5C12.0375 17.5 12.2919 17.4906 13.0919 17.455C13.89 17.4175 14.4344 17.2913 14.9125 17.1063C15.405 16.915 15.8244 16.6575 16.2413 16.2413C16.6575 15.8244 16.9156 15.4069 17.1063 14.9125C17.2913 14.4344 17.4181 13.89 17.455 13.0919C17.4925 12.2919 17.5 12.0375 17.5 10C17.5 7.9625 17.4906 7.70813 17.455 6.90812C17.4175 6.11 17.2913 5.565 17.1063 5.0875C16.915 4.59437 16.6575 4.17562 16.2413 3.75875C15.8244 3.34187 15.4069 3.08438 14.9125 2.89375C14.4344 2.70812 13.89 2.58187 13.0919 2.545C12.2919 2.5075 12.0375 2.5 10 2.5ZM10 3.85C12.0019 3.85 12.2406 3.86 13.0312 3.89437C13.7625 3.92875 14.1594 4.05 14.4231 4.15375C14.7744 4.28937 15.0231 4.45188 15.2869 4.71375C15.5487 4.97625 15.7112 5.22563 15.8469 5.57687C15.9494 5.84062 16.0719 6.2375 16.105 6.96875C16.1406 7.76 16.1487 7.9975 16.1487 10C16.1487 12.0025 16.1394 12.2406 16.1025 13.0312C16.0644 13.7625 15.9425 14.1594 15.8394 14.4231C15.6994 14.7744 15.54 15.0231 15.2775 15.2869C15.0156 15.5487 14.7625 15.7112 14.415 15.8469C14.1525 15.9494 13.7494 16.0719 13.0181 16.105C12.2219 16.1406 11.9875 16.1487 9.98125 16.1487C7.97438 16.1487 7.74 16.1394 6.94438 16.1025C6.2125 16.0644 5.80938 15.9425 5.54688 15.8394C5.19125 15.6994 4.94688 15.54 4.685 15.2775C4.42188 15.0156 4.25375 14.7625 4.1225 14.415C4.01937 14.1525 3.89813 13.7494 3.86 13.0181C3.83188 12.2306 3.82187 11.9875 3.82187 9.99062C3.82187 7.99312 3.83188 7.74937 3.86 6.9525C3.89813 6.22125 4.01937 5.81875 4.1225 5.55625C4.25375 5.2 4.42188 4.95625 4.685 4.69313C4.94688 4.43125 5.19125 4.2625 5.54688 4.13188C5.80938 4.02813 6.20375 3.90625 6.935 3.86875C7.73187 3.84063 7.96625 3.83125 9.97188 3.83125L10 3.85ZM10 6.14875C7.87187 6.14875 6.14875 7.87375 6.14875 10C6.14875 12.1281 7.87375 13.8513 10 13.8513C12.1281 13.8513 13.8513 12.1263 13.8513 10C13.8513 7.87187 12.1263 6.14875 10 6.14875ZM10 12.5C8.61875 12.5 7.5 11.3813 7.5 10C7.5 8.61875 8.61875 7.5 10 7.5C11.3813 7.5 12.5 8.61875 12.5 10C12.5 11.3813 11.3813 12.5 10 12.5ZM14.9038 5.99687C14.9038 6.49375 14.5 6.89687 14.0037 6.89687C13.5069 6.89687 13.1038 6.49312 13.1038 5.99687C13.1038 5.50062 13.5075 5.0975 14.0037 5.0975C14.4994 5.09688 14.9038 5.50062 14.9038 5.99687Z" fill="#D6D6D6"/>
</svg>
