<svg width="116" height="28" viewBox="0 0 116 28" fill="none" xmlns="http://www.w3.org/2000/svg">
<path d="M8.19119 15.7874H6.20258L0 0.244518H2.13066L6.10788 10.3017C6.54979 11.4215 6.91279 12.5449 7.19688 13.6718C7.48886 12.4882 7.85975 11.3435 8.30956 10.2379L12.2631 0.244518H14.4293L8.19119 15.7874Z" fill="#D6D6D6"/>
<path d="M21.254 8.00532C21.254 5.46091 21.9484 3.49059 23.3373 2.09435C24.7262 0.698117 26.6793 0 29.1966 0C31.7218 0 33.6828 0.708749 35.0796 2.12625C36.4763 3.54374 37.1747 5.49989 37.1747 7.99468C37.1747 10.4895 36.4724 12.4492 35.0677 13.8738C33.671 15.2913 31.71 16 29.1848 16C26.6674 16 24.7143 15.3019 23.3255 13.9056C21.9445 12.5094 21.254 10.5426 21.254 8.00532ZM35.0441 8.01595C35.0441 5.91096 34.5548 4.31982 33.5763 3.24253C32.6057 2.15814 31.1615 1.61595 29.244 1.61595C27.3343 1.61595 25.8783 2.16168 24.8761 3.25316C23.8818 4.33754 23.3847 5.92514 23.3847 8.01595C23.3847 10.0997 23.8818 11.6873 24.8761 12.7787C25.8783 13.8702 27.3343 14.4159 29.244 14.4159C31.1537 14.4159 32.5978 13.8738 33.5763 12.7894C34.5548 11.705 35.0441 10.1138 35.0441 8.01595Z" fill="#D6D6D6"/>
<path d="M56.0258 1.84983H48.391V6.85714H55.5523V8.45183H48.391V14.1714H56.0258V15.7874H46.3787V0.244518H56.0258V1.84983Z" fill="#D6D6D6"/>
<path d="M71.0181 15.7874H69.0295L62.8269 0.244518H64.9575L68.9348 10.3017C69.3767 11.4215 69.7397 12.5449 70.0238 13.6718C70.3157 12.4882 70.6866 11.3435 71.1364 10.2379L75.09 0.244518H77.2562L71.0181 15.7874Z" fill="#D6D6D6"/>
<path d="M94.6276 1.84983H86.9928V6.85714H94.1542V8.45183H86.9928V14.1714H94.6276V15.7874H84.9805V0.244518H94.6276V1.84983Z" fill="#D6D6D6"/>
<path d="M103.808 0.244518H108.555C110.669 0.244518 112.236 0.609524 113.254 1.33953C114.272 2.06246 114.781 3.16102 114.781 4.63522C114.781 6.69059 113.621 8.07973 111.301 8.80266L116 15.7874H113.621L109.43 9.32359H105.82V15.7874H103.808V0.244518ZM105.82 1.82857V7.77143H108.578C109.991 7.77143 111.028 7.51982 111.691 7.01661C112.362 6.5134 112.697 5.7515 112.697 4.7309C112.697 3.7103 112.358 2.9732 111.68 2.5196C111.009 2.05891 109.928 1.82857 108.436 1.82857H105.82Z" fill="#D6D6D6"/>
<line x1="4.37114e-08" y1="27.5" x2="116" y2="27.5" stroke="#D6D6D6"/>
</svg>
